<svg width="821" height="220" viewBox="0 0 821 220" fill="none" xmlns="http://www.w3.org/2000/svg">
<path d="M119 123C137.667 110.667 185 86.3999 225 87.9999C275 89.9999 298 123 333 123C368 123 404 98.9999 441 71.9999C478 44.9999 514 36.9999 544 48.9999C574 60.9999 623 120 651 131C679 142 695 148 748 107" stroke="#3E43E5" stroke-width="2"/>
<path d="M225 87.9999C185 86.3999 137.667 110.667 119 123V169H748V107C695 148 679 142 651 131C623 120 574 60.9999 544 48.9999C514 36.9999 478 44.9999 441 71.9999C404 98.9999 368 123 333 123C298 123 275 89.9999 225 87.9999Z" fill="url(#paint0_linear)"/>
<circle cx="119" cy="123" r="7" fill="#3E43E5" stroke="white" stroke-width="2"/>
<circle cx="225" cy="88" r="7" fill="#3E43E5" stroke="white" stroke-width="2"/>
<circle cx="334" cy="123" r="7" fill="#3E43E5" stroke="white" stroke-width="2"/>
<circle cx="440" cy="72" r="7" fill="#3E43E5" stroke="white" stroke-width="2"/>
<circle cx="544" cy="50" r="7" fill="#3E43E5" stroke="white" stroke-width="2"/>
<circle cx="650" cy="129" r="7" fill="#3E43E5" stroke="white" stroke-width="2"/>
<circle cx="748" cy="105" r="7" fill="#3E43E5" stroke="white" stroke-width="2"/>
<path d="M114.155 205.472H114.091L113.336 206.97L111.198 210.862L109.06 206.97L108.304 205.472H108.24V213H107.191V204.064H108.625L111.185 208.878H111.249L113.822 204.064H115.205V213H114.155V205.472ZM120.257 213.154C119.813 213.154 119.407 213.073 119.04 212.91C118.673 212.748 118.358 212.518 118.093 212.219C117.837 211.912 117.636 211.549 117.491 211.131C117.346 210.704 117.274 210.226 117.274 209.697C117.274 209.176 117.346 208.703 117.491 208.276C117.636 207.849 117.837 207.486 118.093 207.188C118.358 206.88 118.673 206.646 119.04 206.483C119.407 206.321 119.813 206.24 120.257 206.24C120.7 206.24 121.102 206.321 121.46 206.483C121.827 206.646 122.143 206.88 122.408 207.188C122.672 207.486 122.877 207.849 123.022 208.276C123.167 208.703 123.24 209.176 123.24 209.697C123.24 210.226 123.167 210.704 123.022 211.131C122.877 211.549 122.672 211.912 122.408 212.219C122.143 212.518 121.827 212.748 121.46 212.91C121.102 213.073 120.7 213.154 120.257 213.154ZM120.257 212.245C120.811 212.245 121.264 212.074 121.614 211.733C121.964 211.391 122.139 210.87 122.139 210.171V209.223C122.139 208.523 121.964 208.003 121.614 207.661C121.264 207.32 120.811 207.149 120.257 207.149C119.702 207.149 119.25 207.32 118.9 207.661C118.55 208.003 118.375 208.523 118.375 209.223V210.171C118.375 210.87 118.55 211.391 118.9 211.733C119.25 212.074 119.702 212.245 120.257 212.245ZM125.206 213V206.394H126.231V207.469H126.282C126.444 207.094 126.67 206.795 126.96 206.573C127.259 206.351 127.656 206.24 128.151 206.24C128.834 206.24 129.371 206.462 129.764 206.906C130.165 207.341 130.366 207.96 130.366 208.762V213H129.342V208.942C129.342 207.755 128.842 207.162 127.844 207.162C127.639 207.162 127.438 207.188 127.242 207.239C127.054 207.29 126.883 207.367 126.73 207.469C126.576 207.572 126.452 207.704 126.359 207.866C126.273 208.02 126.231 208.203 126.231 208.417V213H125.206Z" fill="#171B1F"/>
<path d="M1.12664 148V147.053H3.62317V139.857H3.53355L1.28027 141.957L0.652938 141.279L3.02144 139.064H4.69859V147.053H7.00308V148H1.12664ZM11.7996 148.154C10.7327 148.154 9.95177 147.748 9.45673 146.937C8.97023 146.127 8.72698 144.991 8.72698 143.532C8.72698 142.072 8.97023 140.937 9.45673 140.126C9.95177 139.315 10.7327 138.91 11.7996 138.91C12.8665 138.91 13.6432 139.315 14.1297 140.126C14.6248 140.937 14.8723 142.072 14.8723 143.532C14.8723 144.991 14.6248 146.127 14.1297 146.937C13.6432 147.748 12.8665 148.154 11.7996 148.154ZM11.7996 147.219C12.1496 147.219 12.4483 147.146 12.6958 147.001C12.9433 146.856 13.1439 146.651 13.2975 146.387C13.4512 146.122 13.5621 145.811 13.6304 145.452C13.7072 145.094 13.7456 144.697 13.7456 144.262V142.802C13.7456 142.367 13.7072 141.97 13.6304 141.611C13.5621 141.253 13.4512 140.941 13.2975 140.677C13.1439 140.412 12.9433 140.207 12.6958 140.062C12.4483 139.917 12.1496 139.845 11.7996 139.845C11.4497 139.845 11.151 139.917 10.9034 140.062C10.6559 140.207 10.4553 140.412 10.3017 140.677C10.1481 140.941 10.0329 141.253 9.95604 141.611C9.88776 141.97 9.85362 142.367 9.85362 142.802V144.262C9.85362 144.697 9.88776 145.094 9.95604 145.452C10.0329 145.811 10.1481 146.122 10.3017 146.387C10.4553 146.651 10.6559 146.856 10.9034 147.001C11.151 147.146 11.4497 147.219 11.7996 147.219Z" fill="#171B1F"/>
<path d="M6.82384 104H0.960203V102.899L3.87922 100.21C4.29744 99.8263 4.64738 99.4209 4.92904 98.9941C5.2107 98.5588 5.35153 98.1236 5.35153 97.6883V97.5346C5.35153 97.0396 5.21497 96.6384 4.94185 96.3312C4.66872 96.0239 4.25477 95.8703 3.69998 95.8703C3.42686 95.8703 3.18787 95.9087 2.98303 95.9855C2.77819 96.0623 2.59895 96.169 2.44532 96.3056C2.30022 96.4421 2.17646 96.6043 2.07404 96.7921C1.98015 96.9713 1.90334 97.1676 1.84359 97.381L0.883387 97.0097C0.968738 96.7451 1.08396 96.4891 1.22906 96.2416C1.38269 95.9855 1.57047 95.7593 1.79238 95.563C2.02283 95.3667 2.29595 95.2088 2.61175 95.0893C2.93609 94.9698 3.3159 94.9101 3.75119 94.9101C4.18649 94.9101 4.57484 94.9741 4.91624 95.1021C5.25765 95.2301 5.54357 95.4094 5.77402 95.6398C6.00447 95.8703 6.17944 96.1434 6.29893 96.4592C6.42696 96.775 6.49097 97.1249 6.49097 97.509C6.49097 97.859 6.43976 98.1833 6.33734 98.482C6.24346 98.7808 6.11116 99.0667 5.94046 99.3398C5.76975 99.6044 5.56064 99.8647 5.31312 100.121C5.07414 100.377 4.81382 100.633 4.53216 100.889L2.12525 103.053H6.82384V104ZM11.7996 104.154C10.7327 104.154 9.95177 103.748 9.45673 102.937C8.97023 102.127 8.72698 100.991 8.72698 99.5319C8.72698 98.0723 8.97023 96.9372 9.45673 96.1263C9.95177 95.3155 10.7327 94.9101 11.7996 94.9101C12.8665 94.9101 13.6432 95.3155 14.1297 96.1263C14.6248 96.9372 14.8723 98.0723 14.8723 99.5319C14.8723 100.991 14.6248 102.127 14.1297 102.937C13.6432 103.748 12.8665 104.154 11.7996 104.154ZM11.7996 103.219C12.1496 103.219 12.4483 103.146 12.6958 103.001C12.9433 102.856 13.1439 102.651 13.2975 102.387C13.4512 102.122 13.5621 101.811 13.6304 101.452C13.7072 101.094 13.7456 100.697 13.7456 100.262V98.8021C13.7456 98.3668 13.7072 97.9699 13.6304 97.6114C13.5621 97.253 13.4512 96.9414 13.2975 96.6768C13.1439 96.4123 12.9433 96.2074 12.6958 96.0623C12.4483 95.9172 12.1496 95.8447 11.7996 95.8447C11.4497 95.8447 11.151 95.9172 10.9034 96.0623C10.6559 96.2074 10.4553 96.4123 10.3017 96.6768C10.1481 96.9414 10.0329 97.253 9.95604 97.6114C9.88776 97.9699 9.85362 98.3668 9.85362 98.8021V100.262C9.85362 100.697 9.88776 101.094 9.95604 101.452C10.0329 101.811 10.1481 102.122 10.3017 102.387C10.4553 102.651 10.6559 102.856 10.9034 103.001C11.151 103.146 11.4497 103.219 11.7996 103.219Z" fill="#171B1F"/>
<path d="M3.34151 54.8533C3.9475 54.8533 4.39986 54.7167 4.69859 54.4436C5.00586 54.162 5.15949 53.8035 5.15949 53.3682V53.2786C5.15949 52.8091 5.01013 52.4592 4.7114 52.2288C4.4212 51.9898 4.03712 51.8703 3.55915 51.8703C3.09826 51.8703 2.72271 51.9727 2.43251 52.1775C2.14232 52.3739 1.90334 52.6427 1.71556 52.9841L0.921795 52.3696C1.03275 52.1903 1.16505 52.0154 1.31868 51.8447C1.48085 51.6654 1.66862 51.5075 1.882 51.371C2.09538 51.2344 2.3429 51.1235 2.62456 51.0381C2.90622 50.9528 3.22628 50.9101 3.58476 50.9101C3.9603 50.9101 4.31451 50.9613 4.64738 51.0637C4.98025 51.1576 5.26618 51.3027 5.50517 51.499C5.75268 51.6868 5.94473 51.9215 6.08129 52.2031C6.22638 52.4848 6.29893 52.8049 6.29893 53.1634C6.29893 53.4535 6.25199 53.7139 6.1581 53.9443C6.07275 54.1748 5.95326 54.3753 5.79963 54.546C5.646 54.7167 5.46249 54.8618 5.24911 54.9813C5.04427 55.1008 4.82235 55.1904 4.58337 55.2502V55.3014C4.82235 55.3526 5.0528 55.438 5.27472 55.5575C5.50517 55.6684 5.70574 55.8178 5.87644 56.0056C6.05568 56.1848 6.19651 56.4067 6.29893 56.6713C6.40989 56.9273 6.46537 57.2218 6.46537 57.5547C6.46537 57.9388 6.39282 58.293 6.24772 58.6173C6.10263 58.9331 5.89778 59.2062 5.63319 59.4367C5.3686 59.6586 5.04854 59.8336 4.67299 59.9616C4.29744 60.0896 3.88349 60.1536 3.43113 60.1536C3.04704 60.1536 2.70564 60.111 2.40691 60.0256C2.10818 59.9403 1.84359 59.825 1.61314 59.6799C1.38269 59.5348 1.17785 59.3727 0.998611 59.1934C0.827909 59.0142 0.674276 58.8264 0.537714 58.6301L1.34428 58.0156C1.45524 58.1948 1.57473 58.357 1.70276 58.5021C1.83932 58.6472 1.98869 58.7709 2.15086 58.8734C2.31302 58.9758 2.49653 59.0569 2.70137 59.1166C2.90622 59.1678 3.1452 59.1934 3.41832 59.1934C4.04992 59.1934 4.52789 59.0526 4.85223 58.7709C5.17656 58.4807 5.33873 58.0711 5.33873 57.5419V57.4395C5.33873 56.9103 5.17656 56.5049 4.85223 56.2232C4.52789 55.933 4.04992 55.7879 3.41832 55.7879H2.3685V54.8533H3.34151ZM11.7996 60.1536C10.7327 60.1536 9.95177 59.7482 9.45673 58.9374C8.97023 58.1265 8.72698 56.9914 8.72698 55.5319C8.72698 54.0723 8.97023 52.9372 9.45673 52.1263C9.95177 51.3155 10.7327 50.9101 11.7996 50.9101C12.8665 50.9101 13.6432 51.3155 14.1297 52.1263C14.6248 52.9372 14.8723 54.0723 14.8723 55.5319C14.8723 56.9914 14.6248 58.1265 14.1297 58.9374C13.6432 59.7482 12.8665 60.1536 11.7996 60.1536ZM11.7996 59.219C12.1496 59.219 12.4483 59.1465 12.6958 59.0014C12.9433 58.8563 13.1439 58.6514 13.2975 58.3869C13.4512 58.1223 13.5621 57.8107 13.6304 57.4523C13.7072 57.0938 13.7456 56.6969 13.7456 56.2616V54.8021C13.7456 54.3668 13.7072 53.9699 13.6304 53.6114C13.5621 53.253 13.4512 52.9414 13.2975 52.6768C13.1439 52.4123 12.9433 52.2074 12.6958 52.0623C12.4483 51.9172 12.1496 51.8447 11.7996 51.8447C11.4497 51.8447 11.151 51.9172 10.9034 52.0623C10.6559 52.2074 10.4553 52.4123 10.3017 52.6768C10.1481 52.9414 10.0329 53.253 9.95604 53.6114C9.88776 53.9699 9.85362 54.3668 9.85362 54.8021V56.2616C9.85362 56.6969 9.88776 57.0938 9.95604 57.4523C10.0329 57.8107 10.1481 58.1223 10.3017 58.3869C10.4553 58.6514 10.6559 58.8563 10.9034 59.0014C11.151 59.1465 11.4497 59.219 11.7996 59.219Z" fill="#171B1F"/>
<path d="M4.80102 16V14.246H0.486503V13.2986L4.22489 7.06371H5.82523V13.3498H7.11831V14.246H5.82523V16H4.80102ZM1.49792 13.3498H4.80102V7.89588H4.737L1.49792 13.3498ZM11.7996 16.1536C10.7327 16.1536 9.95177 15.7482 9.45673 14.9374C8.97023 14.1265 8.72698 12.9914 8.72698 11.5319C8.72698 10.0723 8.97023 8.93717 9.45673 8.12633C9.95177 7.31549 10.7327 6.91008 11.7996 6.91008C12.8665 6.91008 13.6432 7.31549 14.1297 8.12633C14.6248 8.93717 14.8723 10.0723 14.8723 11.5319C14.8723 12.9914 14.6248 14.1265 14.1297 14.9374C13.6432 15.7482 12.8665 16.1536 11.7996 16.1536ZM11.7996 15.219C12.1496 15.219 12.4483 15.1465 12.6958 15.0014C12.9433 14.8563 13.1439 14.6514 13.2975 14.3869C13.4512 14.1223 13.5621 13.8107 13.6304 13.4523C13.7072 13.0938 13.7456 12.6969 13.7456 12.2616V10.8021C13.7456 10.3668 13.7072 9.96992 13.6304 9.61145C13.5621 9.25297 13.4512 8.94144 13.2975 8.67685C13.1439 8.41226 12.9433 8.20742 12.6958 8.06232C12.4483 7.91722 12.1496 7.84467 11.7996 7.84467C11.4497 7.84467 11.151 7.91722 10.9034 8.06232C10.6559 8.20742 10.4553 8.41226 10.3017 8.67685C10.1481 8.94144 10.0329 9.25297 9.95604 9.61145C9.88776 9.96992 9.85362 10.3668 9.85362 10.8021V12.2616C9.85362 12.6969 9.88776 13.0938 9.95604 13.4523C10.0329 13.8107 10.1481 14.1223 10.3017 14.3869C10.4553 14.6514 10.6559 14.8563 10.9034 15.0014C11.151 15.1465 11.4497 15.219 11.7996 15.219Z" fill="#171B1F"/>
<path d="M219.199 205.011V213H218.124V205.011H215.282V204.064H222.041V205.011H219.199ZM227.131 211.925H227.079C227.011 212.078 226.926 212.232 226.823 212.385C226.729 212.531 226.61 212.663 226.465 212.782C226.32 212.893 226.145 212.983 225.94 213.051C225.735 213.119 225.496 213.154 225.223 213.154C224.54 213.154 223.998 212.936 223.597 212.501C223.196 212.057 222.995 211.434 222.995 210.631V206.394H224.02V210.452C224.02 211.639 224.523 212.232 225.53 212.232C225.735 212.232 225.931 212.206 226.119 212.155C226.315 212.104 226.486 212.027 226.631 211.925C226.785 211.822 226.904 211.694 226.99 211.54C227.084 211.378 227.131 211.186 227.131 210.964V206.394H228.155V213H227.131V211.925ZM233.102 213.154C232.649 213.154 232.24 213.073 231.873 212.91C231.514 212.748 231.203 212.518 230.938 212.219C230.682 211.912 230.482 211.549 230.336 211.131C230.2 210.704 230.132 210.226 230.132 209.697C230.132 209.176 230.2 208.703 230.336 208.276C230.482 207.849 230.682 207.486 230.938 207.188C231.203 206.88 231.514 206.646 231.873 206.483C232.24 206.321 232.649 206.24 233.102 206.24C233.546 206.24 233.943 206.321 234.292 206.483C234.642 206.646 234.941 206.872 235.189 207.162C235.436 207.444 235.624 207.781 235.752 208.173C235.889 208.566 235.957 208.997 235.957 209.466V209.953H231.207V210.26C231.207 210.542 231.25 210.806 231.335 211.054C231.429 211.293 231.557 211.502 231.719 211.681C231.89 211.861 232.095 212.001 232.334 212.104C232.581 212.206 232.859 212.257 233.166 212.257C233.584 212.257 233.947 212.159 234.254 211.963C234.57 211.767 234.813 211.485 234.984 211.118L235.714 211.643C235.5 212.095 235.167 212.462 234.715 212.744C234.263 213.017 233.725 213.154 233.102 213.154ZM233.102 207.098C232.82 207.098 232.564 207.149 232.334 207.252C232.103 207.345 231.903 207.482 231.732 207.661C231.57 207.841 231.442 208.054 231.348 208.301C231.254 208.54 231.207 208.805 231.207 209.095V209.185H234.856V209.044C234.856 208.455 234.694 207.986 234.369 207.636C234.053 207.277 233.631 207.098 233.102 207.098Z" fill="#171B1F"/>
<path d="M322.433 213L320.256 204.064H321.395L322.356 208.365L323.098 211.707H323.124L323.956 208.365L325.083 204.064H326.312L327.4 208.365L328.232 211.694H328.271L329.039 208.365L330.05 204.064H331.151L328.859 213H327.669L326.504 208.545L325.684 205.267H325.659L324.814 208.545L323.623 213H322.433ZM335.069 213.154C334.617 213.154 334.207 213.073 333.84 212.91C333.481 212.748 333.17 212.518 332.905 212.219C332.649 211.912 332.449 211.549 332.304 211.131C332.167 210.704 332.099 210.226 332.099 209.697C332.099 209.176 332.167 208.703 332.304 208.276C332.449 207.849 332.649 207.486 332.905 207.188C333.17 206.88 333.481 206.646 333.84 206.483C334.207 206.321 334.617 206.24 335.069 206.24C335.513 206.24 335.91 206.321 336.26 206.483C336.61 206.646 336.908 206.872 337.156 207.162C337.403 207.444 337.591 207.781 337.719 208.173C337.856 208.566 337.924 208.997 337.924 209.466V209.953H333.174V210.26C333.174 210.542 333.217 210.806 333.302 211.054C333.396 211.293 333.524 211.502 333.686 211.681C333.857 211.861 334.062 212.001 334.301 212.104C334.548 212.206 334.826 212.257 335.133 212.257C335.551 212.257 335.914 212.159 336.221 211.963C336.537 211.767 336.78 211.485 336.951 211.118L337.681 211.643C337.467 212.095 337.135 212.462 336.682 212.744C336.23 213.017 335.692 213.154 335.069 213.154ZM335.069 207.098C334.787 207.098 334.531 207.149 334.301 207.252C334.07 207.345 333.87 207.482 333.699 207.661C333.537 207.841 333.409 208.054 333.315 208.301C333.221 208.54 333.174 208.805 333.174 209.095V209.185H336.823V209.044C336.823 208.455 336.661 207.986 336.336 207.636C336.021 207.277 335.598 207.098 335.069 207.098ZM344.119 211.925H344.068C343.667 212.744 343.022 213.154 342.134 213.154C341.725 213.154 341.353 213.073 341.021 212.91C340.688 212.748 340.402 212.518 340.163 212.219C339.932 211.92 339.753 211.558 339.625 211.131C339.506 210.704 339.446 210.226 339.446 209.697C339.446 209.168 339.506 208.69 339.625 208.263C339.753 207.836 339.932 207.473 340.163 207.175C340.402 206.876 340.688 206.646 341.021 206.483C341.353 206.321 341.725 206.24 342.134 206.24C342.595 206.24 342.988 206.343 343.312 206.547C343.645 206.744 343.897 207.051 344.068 207.469H344.119V203.526H345.143V213H344.119V211.925ZM342.416 212.232C342.647 212.232 342.864 212.202 343.069 212.142C343.282 212.082 343.466 211.997 343.62 211.886C343.773 211.767 343.893 211.626 343.978 211.464C344.072 211.293 344.119 211.101 344.119 210.888V208.429C344.119 208.25 344.072 208.084 343.978 207.93C343.893 207.768 343.773 207.631 343.62 207.52C343.466 207.409 343.282 207.324 343.069 207.264C342.864 207.196 342.647 207.162 342.416 207.162C341.836 207.162 341.379 207.345 341.046 207.712C340.713 208.071 340.547 208.545 340.547 209.134V210.26C340.547 210.849 340.713 211.327 341.046 211.694C341.379 212.053 341.836 212.232 342.416 212.232Z" fill="#171B1F"/>
<path d="M434.199 205.011V213H433.124V205.011H430.282V204.064H437.041V205.011H434.199ZM438.697 203.526H439.721V207.469H439.772C439.935 207.094 440.161 206.795 440.451 206.573C440.75 206.351 441.147 206.24 441.642 206.24C442.324 206.24 442.862 206.462 443.255 206.906C443.656 207.341 443.856 207.96 443.856 208.762V213H442.832V208.942C442.832 207.755 442.333 207.162 441.334 207.162C441.129 207.162 440.929 207.188 440.733 207.239C440.545 207.29 440.374 207.367 440.22 207.469C440.067 207.572 439.943 207.704 439.849 207.866C439.764 208.02 439.721 208.203 439.721 208.417V213H438.697V203.526ZM450.327 211.925H450.276C450.207 212.078 450.122 212.232 450.02 212.385C449.926 212.531 449.806 212.663 449.661 212.782C449.516 212.893 449.341 212.983 449.136 213.051C448.931 213.119 448.692 213.154 448.419 213.154C447.737 213.154 447.195 212.936 446.793 212.501C446.392 212.057 446.192 211.434 446.192 210.631V206.394H447.216V210.452C447.216 211.639 447.719 212.232 448.727 212.232C448.931 212.232 449.128 212.206 449.316 212.155C449.512 212.104 449.683 212.027 449.828 211.925C449.981 211.822 450.101 211.694 450.186 211.54C450.28 211.378 450.327 211.186 450.327 210.964V206.394H451.351V213H450.327V211.925Z" fill="#171B1F"/>
<path d="M539.191 213V204.064H544.517V205.011H540.266V208.007H544.145V208.954H540.266V213H539.191ZM546.272 213V206.394H547.296V207.61H547.36C547.48 207.294 547.693 207.013 548 206.765C548.308 206.518 548.73 206.394 549.268 206.394H549.665V207.418H549.063C548.508 207.418 548.073 207.525 547.757 207.738C547.45 207.943 547.296 208.203 547.296 208.519V213H546.272ZM551.767 204.845C551.545 204.845 551.383 204.793 551.281 204.691C551.187 204.58 551.14 204.439 551.14 204.269V204.102C551.14 203.931 551.187 203.795 551.281 203.692C551.383 203.581 551.545 203.526 551.767 203.526C551.989 203.526 552.147 203.581 552.241 203.692C552.343 203.795 552.395 203.931 552.395 204.102V204.269C552.395 204.439 552.343 204.58 552.241 204.691C552.147 204.793 551.989 204.845 551.767 204.845ZM551.255 206.394H552.279V213H551.255V206.394Z" fill="#171B1F"/>
<path d="M639.7 213.154C638.974 213.154 638.356 213.017 637.844 212.744C637.331 212.462 636.896 212.078 636.538 211.592L637.331 210.926C637.647 211.344 637.997 211.664 638.381 211.886C638.765 212.1 639.218 212.206 639.738 212.206C640.379 212.206 640.865 212.053 641.198 211.745C641.539 211.438 641.71 211.028 641.71 210.516C641.71 210.09 641.582 209.761 641.326 209.53C641.07 209.3 640.647 209.117 640.058 208.98L639.329 208.814C638.509 208.626 637.882 208.344 637.447 207.969C637.02 207.584 636.807 207.047 636.807 206.355C636.807 205.963 636.879 205.613 637.024 205.306C637.169 204.998 637.37 204.742 637.626 204.537C637.891 204.333 638.202 204.179 638.561 204.077C638.928 203.966 639.329 203.91 639.764 203.91C640.438 203.91 641.014 204.034 641.492 204.281C641.979 204.529 642.389 204.892 642.721 205.37L641.915 205.959C641.667 205.617 641.369 205.348 641.019 205.152C640.669 204.956 640.233 204.857 639.713 204.857C639.141 204.857 638.689 204.981 638.356 205.229C638.031 205.468 637.869 205.83 637.869 206.317C637.869 206.744 638.006 207.068 638.279 207.29C638.561 207.503 638.983 207.674 639.546 207.802L640.276 207.969C641.155 208.165 641.791 208.464 642.184 208.865C642.576 209.266 642.773 209.799 642.773 210.465C642.773 210.875 642.7 211.246 642.555 211.579C642.418 211.912 642.218 212.193 641.953 212.424C641.689 212.654 641.364 212.834 640.98 212.962C640.605 213.09 640.178 213.154 639.7 213.154ZM649.611 213C649.226 213 648.949 212.898 648.778 212.693C648.616 212.488 648.514 212.232 648.471 211.925H648.407C648.262 212.334 648.023 212.642 647.69 212.846C647.357 213.051 646.96 213.154 646.499 213.154C645.8 213.154 645.253 212.974 644.861 212.616C644.477 212.257 644.285 211.771 644.285 211.156C644.285 210.533 644.511 210.055 644.963 209.723C645.424 209.39 646.137 209.223 647.101 209.223H648.407V208.57C648.407 208.101 648.279 207.742 648.023 207.495C647.767 207.247 647.374 207.124 646.845 207.124C646.444 207.124 646.107 207.213 645.834 207.392C645.569 207.572 645.347 207.811 645.168 208.109L644.553 207.533C644.733 207.175 645.019 206.872 645.411 206.624C645.804 206.368 646.299 206.24 646.896 206.24C647.699 206.24 648.322 206.436 648.766 206.829C649.209 207.222 649.431 207.768 649.431 208.468V212.104H650.187V213H649.611ZM646.666 212.283C646.922 212.283 647.157 212.253 647.37 212.193C647.583 212.134 647.767 212.048 647.921 211.937C648.074 211.826 648.194 211.698 648.279 211.553C648.364 211.408 648.407 211.25 648.407 211.08V209.991H647.05C646.461 209.991 646.03 210.077 645.757 210.247C645.492 210.418 645.36 210.666 645.36 210.99V211.259C645.36 211.583 645.475 211.835 645.706 212.014C645.945 212.193 646.265 212.283 646.666 212.283ZM653.39 213C653.032 213 652.759 212.902 652.571 212.706C652.392 212.501 652.302 212.236 652.302 211.912V207.29H651.214V206.394H651.828C652.05 206.394 652.199 206.351 652.276 206.266C652.362 206.172 652.404 206.014 652.404 205.792V204.563H653.326V206.394H654.773V207.29H653.326V212.104H654.67V213H653.39Z" fill="#171B1F"/>
<path d="M741.7 213.154C740.974 213.154 740.356 213.017 739.844 212.744C739.331 212.462 738.896 212.078 738.538 211.592L739.331 210.926C739.647 211.344 739.997 211.664 740.381 211.886C740.765 212.1 741.218 212.206 741.738 212.206C742.379 212.206 742.865 212.053 743.198 211.745C743.539 211.438 743.71 211.028 743.71 210.516C743.71 210.09 743.582 209.761 743.326 209.53C743.07 209.3 742.647 209.117 742.058 208.98L741.329 208.814C740.509 208.626 739.882 208.344 739.447 207.969C739.02 207.584 738.807 207.047 738.807 206.355C738.807 205.963 738.879 205.613 739.024 205.306C739.169 204.998 739.37 204.742 739.626 204.537C739.891 204.333 740.202 204.179 740.561 204.077C740.928 203.966 741.329 203.91 741.764 203.91C742.438 203.91 743.014 204.034 743.492 204.281C743.979 204.529 744.389 204.892 744.721 205.37L743.915 205.959C743.667 205.617 743.369 205.348 743.019 205.152C742.669 204.956 742.233 204.857 741.713 204.857C741.141 204.857 740.689 204.981 740.356 205.229C740.031 205.468 739.869 205.83 739.869 206.317C739.869 206.744 740.006 207.068 740.279 207.29C740.561 207.503 740.983 207.674 741.546 207.802L742.276 207.969C743.155 208.165 743.791 208.464 744.184 208.865C744.576 209.266 744.773 209.799 744.773 210.465C744.773 210.875 744.7 211.246 744.555 211.579C744.418 211.912 744.218 212.193 743.953 212.424C743.689 212.654 743.364 212.834 742.98 212.962C742.605 213.09 742.178 213.154 741.7 213.154ZM750.881 211.925H750.83C750.761 212.078 750.676 212.232 750.573 212.385C750.48 212.531 750.36 212.663 750.215 212.782C750.07 212.893 749.895 212.983 749.69 213.051C749.485 213.119 749.246 213.154 748.973 213.154C748.29 213.154 747.748 212.936 747.347 212.501C746.946 212.057 746.745 211.434 746.745 210.631V206.394H747.77V210.452C747.77 211.639 748.273 212.232 749.28 212.232C749.485 212.232 749.682 212.206 749.869 212.155C750.066 212.104 750.236 212.027 750.381 211.925C750.535 211.822 750.655 211.694 750.74 211.54C750.834 211.378 750.881 211.186 750.881 210.964V206.394H751.905V213H750.881V211.925ZM754.368 213V206.394H755.392V207.469H755.444C755.606 207.094 755.832 206.795 756.122 206.573C756.421 206.351 756.818 206.24 757.313 206.24C757.996 206.24 758.533 206.462 758.926 206.906C759.327 207.341 759.528 207.96 759.528 208.762V213H758.504V208.942C758.504 207.755 758.004 207.162 757.006 207.162C756.801 207.162 756.6 207.188 756.404 207.239C756.216 207.29 756.045 207.367 755.892 207.469C755.738 207.572 755.614 207.704 755.52 207.866C755.435 208.02 755.392 208.203 755.392 208.417V213H754.368Z" fill="#171B1F"/>
<line x1="39" y1="185.5" x2="821" y2="185.5" stroke="#BEC7CC"/>
<defs>
<linearGradient id="paint0_linear" x1="433.5" y1="43.5726" x2="433.5" y2="169" gradientUnits="userSpaceOnUse">
<stop stop-color="#3E43E5" stop-opacity="0.14"/>
<stop offset="1" stop-color="#3E43E5" stop-opacity="0"/>
</linearGradient>
</defs>
</svg>
